<svg width="25" height="22" viewBox="0 0 25 22" fill="none" xmlns="http://www.w3.org/2000/svg">
<path d="M21.6672 12.4811L14.3643 19.7479C13.8801 20.2295 13.2235 20.5 12.5389 20.5C11.8543 20.5 11.1977 20.2295 10.7135 19.7479L3.41059 12.4824C2.8069 11.887 2.32736 11.1789 1.99949 10.3987C1.67162 9.61843 1.50188 8.78145 1.50002 7.93578C1.49815 7.0901 1.66421 6.25239 1.98864 5.47073C2.31307 4.68907 2.78949 3.97886 3.39056 3.38088C3.99162 2.78289 4.70548 2.30891 5.49116 1.98614C6.27684 1.66337 7.11887 1.49816 7.9689 1.50002C8.81892 1.50187 9.66021 1.67074 10.4445 1.99693C11.2287 2.32312 11.9405 2.80021 12.5389 3.40081C13.7544 2.22161 15.388 1.56633 17.0857 1.57692C18.7834 1.5875 20.4086 2.26309 21.6091 3.45735C22.8097 4.6516 23.489 6.26835 23.4999 7.95736C23.5107 9.64638 22.8523 11.2717 21.6672 12.4811Z" stroke="#4D4D4D" stroke-width="1.5" stroke-linecap="round" stroke-linejoin="round"/>
</svg>
