<svg width="21" height="20" viewBox="0 0 21 20" fill="none" xmlns="http://www.w3.org/2000/svg">
<path d="M9.43077 0.000430295C11.6099 0.000430295 13.7891 0.829392 15.4466 2.48651C18.5501 5.59002 18.7453 10.523 16.0365 13.8594L20.6594 18.4844H20.659C20.8299 18.648 20.9273 18.8735 20.9296 19.1102C20.932 19.3469 20.839 19.5744 20.6718 19.7416C20.5046 19.9092 20.2771 20.0018 20.0404 19.9994C19.8037 19.997 19.5782 19.8996 19.4142 19.7288L14.7913 15.1038C11.4551 17.8154 6.52128 17.6203 3.41634 14.516C0.102041 11.2017 0.1001 5.80088 3.41474 2.48608C5.07189 0.828931 7.25145 0 9.4306 0L9.43077 0.000430295ZM9.43077 1.74892C7.70578 1.74892 5.98079 2.41026 4.6598 3.73129C2.01811 6.37297 2.02005 10.63 4.66139 13.2713C7.27795 15.8879 11.4758 15.909 14.1224 13.3419V13.3415C14.1651 13.2869 14.2142 13.237 14.2689 13.1939C14.2697 13.1931 14.2709 13.1927 14.2721 13.1919C16.8376 10.5454 16.8176 6.34709 14.2015 3.73084C12.8808 2.41015 11.1555 1.74848 9.43047 1.74848L9.43077 1.74892Z" fill="white"/>
</svg>
