<svg width="31" height="28" viewBox="0 0 31 28" fill="none" xmlns="http://www.w3.org/2000/svg">
<path d="M8.82989 27.6988C9.806 27.6988 10.5973 26.9076 10.5973 25.9315C10.5973 24.9554 9.806 24.1641 8.82989 24.1641C7.85379 24.1641 7.0625 24.9554 7.0625 25.9315C7.0625 26.9076 7.85379 27.6988 8.82989 27.6988Z" fill="#332C2C"/>
<path d="M21.201 27.6979C22.1771 27.6979 22.9684 26.9066 22.9684 25.9305C22.9684 24.9544 22.1771 24.1631 21.201 24.1631C20.2249 24.1631 19.4336 24.9544 19.4336 25.9305C19.4336 26.9066 20.2249 27.6979 21.201 27.6979Z" fill="#332C2C"/>
<path d="M24.3371 9.62527C24.213 9.47342 24.0566 9.35111 23.8793 9.26723C23.702 9.18335 23.5082 9.14001 23.312 9.14035H6.50249L6.16392 7.21941C6.12782 7.0148 6.02077 6.82944 5.86159 6.69591C5.7024 6.56238 5.50126 6.48921 5.29348 6.48926H1.7587C1.52433 6.48926 1.29955 6.58236 1.13383 6.74809C0.968103 6.91381 0.875 7.13858 0.875 7.37295C0.875 7.60732 0.968103 7.8321 1.13383 7.99782C1.29955 8.16355 1.52433 8.25665 1.7587 8.25665H4.55228L7.07413 22.5493C7.11023 22.7539 7.21727 22.9393 7.37646 23.0728C7.53565 23.2064 7.73679 23.2795 7.94457 23.2795H22.0837C22.3181 23.2795 22.5428 23.1864 22.7086 23.0207C22.8743 22.8549 22.9674 22.6302 22.9674 22.3958C22.9674 22.1614 22.8743 21.9366 22.7086 21.7709C22.5428 21.6052 22.3181 21.5121 22.0837 21.5121H8.68577L8.37427 19.7447H21.7214C22.0279 19.7443 22.3248 19.6381 22.5619 19.4439C22.799 19.2498 22.9618 18.9796 23.0226 18.6793L24.6133 10.726C24.6516 10.5335 24.6467 10.335 24.599 10.1446C24.5512 9.95424 24.4618 9.77687 24.3371 9.62527Z" fill="#332C2C"/>
<rect x="17.5117" y="0.548828" width="13.0701" height="13.0701" rx="6.53505" fill="#CE1215"/>
<path d="M24.2843 3.60747H25.2348V11.9248H24.1417V4.79566L22.3713 5.31847L22.098 4.36791L24.2843 3.60747Z" fill="white"/>
</svg>
